<?xml version="1.0" encoding="UTF-8"?>
<!-- Svg Vector Icons : http://www.onlinewebfonts.com/icon -->
<!DOCTYPE svg PUBLIC "-//W3C//DTD SVG 1.1//EN" "http://www.w3.org/Graphics/SVG/1.1/DTD/svg11.dtd">
<svg version="1.1" xmlns="http://www.w3.org/2000/svg" xmlns:xlink="http://www.w3.org/1999/xlink" x="0px" y="0px" viewBox="0 0 1000 1000" enable-background="new 0 0 1000 1000" xml:space="preserve">
<metadata> Svg Vector Icons : http://www.onlinewebfonts.com/icon </metadata>
<g><g transform="translate(0.000000,511.000000) scale(0.100000,-0.100000)"><path d="M7100.3,4979.4c-34.6-17.3-123-101.8-196-188.3c-380.5-449.6-557.3-895.4-595.7-1495c-26.9-422.7,1.9-722.5,159.5-1706.3c67.3-418.9,117.2-899.3,103.8-1014.6c-5.8-61.5-17.3-51.9-591.8,526.5l-586.1,588l240.2-11.5c132.6-7.7,326.7-25,432.3-38.4c105.7-13.5,196-23.1,199.9-19.2c3.8,3.8-13.5,130.7-36.5,282.5l-44.2,278.6l-69.2,11.5c-38.4,5.8-194.1,19.2-347.8,32.7c-841.7,63.4-1498.8-134.5-2052.2-618.8c-628.4-551.5-905.1-1306.7-832-2269.4c21.1-282.5,51.9-495.8,182.5-1327.8c46.1-290.2,99.9-853.2,86.5-895.5c-3.8-11.5-270.9,244-593.8,566.9l-586.1,588l221-13.4c121.1-5.8,315.1-25,430.4-38.4c117.2-15.4,215.2-25,219.1-19.2c3.8,3.8-13.4,130.7-38.4,280.5l-44.2,274.8l-73,15.4c-242.1,50-956.9,48-1220.2-3.8c-442-88.4-830.1-278.6-1170.2-574.6c-146-128.7-197.9-209.4-197.9-313.2c0-119.1,132.6-265.2,244-265.2c59.6,0,2144.5-2094.5,2159.8-2171.4c40.4-186.4,236.3-282.5,397.8-197.9c138.4,74.9,443.9,484.2,572.6,766.7c155.6,344,219.1,676.4,219.1,1164.5c0,372.8-30.7,651.4-144.1,1339.3c-78.8,476.6-128.7,935.8-121.1,1087.6l5.8,105.7l586.1-588l586.1-588l-249.8,13.5c-136.4,5.8-332.4,23.1-432.4,36.5c-99.9,13.4-186.4,21.1-190.2,17.3c-5.8-3.8,11.5-130.7,34.6-282.5l44.2-276.7l71.1-11.5c38.4-5.8,190.2-19.2,338.2-32.6c566.9-44.2,1120.3,46.1,1531.5,253.6c309.4,155.7,661,451.6,874.3,736c292.1,393.9,440,797.5,488.1,1341.2c32.7,367,5.8,689.8-126.8,1514.2c-94.2,591.8-117.2,778.2-136.4,1085.7l-11.5,211.4l588-586.1c322.8-322.8,588-589.9,588-593.8c0-11.5-422.7,19.2-641.8,48c-117.2,13.4-215.2,23.1-219,19.2c-9.6-11.5,74.9-538,90.3-553.4c25-25,386.2-55.7,691.8-55.7c736-1.9,1237.5,171,1742.9,599.5c165.3,140.3,219.1,221,219.1,330.5c0,121.1-119.1,242.1-269,270.9c-30.7,5.8-413.1,374.7-1089.5,1054.9C7740.1,4474.1,7498,4725.8,7498,4762.3c0,65.3-65.3,165.3-138.3,209.4C7282.8,5017.9,7184.8,5019.8,7100.3,4979.4z M8293.6,3398l995.4-995.4l-123-88.4c-151.8-109.5-367-213.3-543.8-263.3l-134.5-38.4L7696,2804.2l-793.6,793.6l30.7,115.3c42.3,159.5,163.3,411.2,267.1,559.2c48,67.3,90.3,123,92.2,123C7294.4,4395.3,7744,3947.6,8293.6,3398z M5728.3,832.7l793.6-793.6l-32.7-113.4c-46.1-165.3-169.1-415.1-269-557.3c-48-67.2-90.3-123-92.2-123c-1.9,0-451.6,447.7-1001.2,997.3l-995.4,995.4l121.1,86.5c67.3,48,178.7,115.3,247.9,149.9c113.4,57.6,365.1,149.9,413.1,153.7C4925.1,1628.2,5290.2,1270.8,5728.3,832.7z M4873.2-22.4l995.4-995.4l-121.1-88.4c-159.5-111.4-359.3-211.4-534.2-263.3l-140.3-44.2l-797.5,799.4l-799.4,797.5l44.2,140.3c48,161.4,180.6,424.7,278.6,561.1c36.5,50,69.2,90.3,73,90.3C3874,974.9,4323.6,527.2,4873.2-22.4z M2306-2585.8l793.6-793.6l-51.9-163.3c-61.5-197.9-138.3-353.6-251.7-513.1c-46.1-65.3-86.5-119.1-88.4-119.1c-1.9,0-451.6,447.7-1001.1,997.3l-995.4,995.4l124.9,90.3c178.7,128.7,488.1,265.2,666.8,297.8C1508.5-1792.2,1869.8-2149.6,2306-2585.8z"/></g></g>
</svg>