<?xml version="1.0" encoding="utf-8"?>
<!-- Generator: Adobe Illustrator 24.2.0, SVG Export Plug-In . SVG Version: 6.00 Build 0)  -->
<svg version="1.1" id="Layer_1" xmlns="http://www.w3.org/2000/svg" xmlns:xlink="http://www.w3.org/1999/xlink" x="0px" y="0px"
	 viewBox="0 0 1024 1024" enable-background="new 0 0 1024 1024" xml:space="preserve">
<path fill="#FFFFFF" stroke="#000000" stroke-width="22" stroke-miterlimit="10" d="M521.7,194.4h-44.4c-24.4,0-44.2,19.8-44.2,44.2
	v342.5c0,10-3.4,19.7-9.6,27.5L217.3,868.3c-23,29-2.4,71.7,34.6,71.7h539.3c37,0,57.7-42.7,34.6-71.7L619.8,608.6
	c-6.2-7.8-9.6-17.5-9.6-27.5V238.6c0-24.4-19.8-44.2-44.2-44.2H521.7"/>
<path fill="#1C1C1C" d="M827.3,868.3L711.9,722.9c-125.7-1.6-250.2,4-376-2.3L218.7,868.3c-23,29-2.4,71.7,34.6,71.7h539.3
	C829.7,940,850.3,897.3,827.3,868.3z M373.5,901c-10.2,0-18.5-8.3-18.5-18.5s8.3-18.5,18.5-18.5s18.5,8.3,18.5,18.5
	S383.7,901,373.5,901z M377,811c-12.1,0-22-9.8-22-22s9.9-22,22-22s22,9.8,22,22S389.1,811,377,811z M497.5,789
	c-9.7,0-17.5-7.8-17.5-17.5s7.8-17.5,17.5-17.5s17.5,7.8,17.5,17.5S507.2,789,497.5,789z M558,894c-10.5,0-19-8.5-19-19
	s8.5-19,19-19s19,8.5,19,19S568.5,894,558,894z M671,798c-10.5,0-19-8.5-19-19s8.5-19,19-19s19,8.5,19,19S681.5,798,671,798z
	 M756.5,901c-10.2,0-18.5-8.3-18.5-18.5s8.3-18.5,18.5-18.5s18.5,8.3,18.5,18.5S766.7,901,756.5,901z"/>
<line fill="none" stroke="#000000" stroke-width="17" stroke-miterlimit="10" x1="522.3" y1="316.4" x2="432.4" y2="316.4"/>
<line fill="none" stroke="#000000" stroke-width="17" stroke-miterlimit="10" x1="521" y1="399.5" x2="432.4" y2="399.5"/>
<circle fill="none" stroke="#000000" stroke-width="17" stroke-miterlimit="10" cx="538.7" cy="42.4" r="16.4"/>
<circle fill="none" stroke="#000000" stroke-width="17" stroke-miterlimit="10" cx="457.6" cy="108.5" r="25.2"/>
</svg>
