<?xml version="1.0" encoding="utf-8"?>
<!-- Generator: Adobe Illustrator 24.2.0, SVG Export Plug-In . SVG Version: 6.00 Build 0)  -->
<svg version="1.1" id="Layer_1" xmlns="http://www.w3.org/2000/svg" xmlns:xlink="http://www.w3.org/1999/xlink" x="0px" y="0px"
	 viewBox="0 0 1024 1024" enable-background="new 0 0 1024 1024" xml:space="preserve">
<rect x="17.7" y="268.6" fill="none" stroke="#000000" stroke-width="10" stroke-miterlimit="10" width="992.9" height="505.7"/>
<rect x="18.3" y="269.2" fill="none" stroke="#000000" stroke-width="4" stroke-miterlimit="10" width="396.1" height="276"/>
<rect x="414.4" y="501" fill="none" stroke="#000000" stroke-width="4" stroke-miterlimit="10" width="595.7" height="44.2"/>
<rect x="414.4" y="454.8" fill="#494848" stroke="#000000" stroke-width="4" stroke-miterlimit="10" width="595.7" height="45.3"/>
<rect x="414.4" y="408.6" fill="none" stroke="#000000" stroke-width="4" stroke-miterlimit="10" width="595.7" height="45.3"/>
<rect x="414.4" y="362.3" fill="#494848" stroke="#000000" stroke-width="4" stroke-miterlimit="10" width="595.7" height="45.3"/>
<rect x="414.4" y="316.1" fill="none" stroke="#000000" stroke-width="4" stroke-miterlimit="10" width="595.7" height="45.3"/>
<rect x="414.4" y="271.4" fill="#494848" stroke="#000000" stroke-width="4" stroke-miterlimit="10" width="595.7" height="45.3"/>
<rect x="17.2" y="594.3" fill="none" stroke="#000000" stroke-width="4" stroke-miterlimit="10" width="994" height="45.3"/>
<rect x="17.2" y="545.2" fill="#494848" stroke="#000000" stroke-width="4" stroke-miterlimit="10" width="992.9" height="49.6"/>
<rect x="17.2" y="729.6" fill="#494848" stroke="#000000" stroke-width="4" stroke-miterlimit="10" width="994" height="45.3"/>
<rect x="17.2" y="683.8" fill="none" stroke="#000000" stroke-width="4" stroke-miterlimit="10" width="994" height="45.3"/>
<rect x="17.2" y="639.1" fill="#494848" stroke="#000000" stroke-width="4" stroke-miterlimit="10" width="994" height="45.3"/>
<polygon fill="none" stroke="#000000" stroke-width="6" stroke-miterlimit="10" points="93.2,351 81.7,392.9 116,370 150.4,392.9 
	138.9,351 169.4,328.1 131.3,328.1 116,290 104.6,328.1 62.6,328.1 "/>
<polygon fill="none" stroke="#000000" stroke-width="6" stroke-miterlimit="10" points="274,354.8 262.2,397.9 297.4,374.4 
	332.6,397.9 320.9,354.8 352.1,331.4 313,331.4 297.4,292.3 285.7,331.4 242.7,331.4 "/>
<polygon fill="none" stroke="#000000" stroke-width="6" stroke-miterlimit="10" points="93.2,474.3 81.7,516.2 116,493.4 
	150.4,516.2 138.9,474.3 169.4,451.4 131.3,451.4 116,413.3 104.6,451.4 62.6,451.4 "/>
<polygon fill="none" stroke="#000000" stroke-width="6" stroke-miterlimit="10" points="274,478.1 262.2,521.1 297.4,497.7 
	332.6,521.1 320.9,478.1 352.1,454.7 313,454.7 297.4,415.6 285.7,454.7 242.7,454.7 "/>
</svg>
