<?xml version="1.0" encoding="utf-8"?>
<!-- Generator: Adobe Illustrator 24.2.0, SVG Export Plug-In . SVG Version: 6.00 Build 0)  -->
<svg version="1.1" id="Layer_1" xmlns="http://www.w3.org/2000/svg" xmlns:xlink="http://www.w3.org/1999/xlink" x="0px" y="0px"
	 viewBox="0 0 1024 1024" style="enable-background:new 0 0 1024 1024;" xml:space="preserve">
<g>
	<path d="M510.4,28c0,0.87,0,1.74,0,2.76c1.51,0.12,3.07,0.8,3.12-1.63c0.17,0.99,0.34,1.99,0.56,3.24
		c-1.21,0.12-2.29,0.23-3.56,0.36c-0.06,0.73-0.17,1.42-0.17,2.11c-0.01,10.61-0.1,21.21,0.08,31.81c0.03,1.8,1.37,3.55,1.92,5.38
		c0.33,1.12,0.51,2.37,0.37,3.51c-0.2,1.65,1.07,3.73-1.26,4.89c-0.16,0.08-0.08,1.14,0.19,1.52c1.57,2.18,1.57,6.44,0.06,8.48
		c-0.31,0.42-0.29,1.47,0.03,1.89c1.41,1.89,1.47,6.61,0.07,8.36c-0.33,0.41-0.44,1.62-0.33,1.67c2.19,0.88,0.95,2.76,1.31,4.16
		c0.18,0.72,0.3,1.81,0.78,2.04c5.85,2.88,9,7.93,11.29,13.71c0.24,0.6,0.49,1.2,0.81,1.98c1.46,0,2.97,0,4.62,0
		c0,2.52,0,4.83,0,7.01c-1,0.47-1.92,0.9-2.85,1.34c0.72,0.44,1.45,0.87,2.51,1.52c0,2.24,0,4.94,0,7.8
		c-0.77,0.12-1.53,0.23-2.3,0.35c-0.77,2,0.49,1.97,1.8,1.95c1.21-0.02,2.42,0,3.98,0c0.33,4.62,0.64,9.13,0.9,12.74
		c-2,1.75-3.55,2.75-4.63,4.13c-3.48,4.44-4.45,9.84-5.12,15.22c-0.48,3.83-0.55,7.75-0.41,11.61c1.22,33.57,2.37,67.14,3.86,100.7
		c1.68,37.6,3.51,75.19,5.63,112.77c1.65,29.25,3.68,58.48,5.82,87.7c1.59,21.63,3.25,43.26,5.59,64.81
		c2.12,19.61,5.19,39.12,7.86,58.68c0.38,2.8,0.84,5.59,1.3,8.61c3.57,0,7.1,0,10.57,0c0.39,2.09,0.8,3.93,1.02,5.8
		c0.05,0.42-0.53,1.28-0.89,1.32c-2.13,0.23-3.14,1.69-3.7,3.42c-1.66,5.11-2.63,10.29-1.27,15.68
		c7.77,30.8,15.27,61.68,23.41,92.38c3.31,12.47,8.04,24.57,12.05,36.85c0.45,1.39,1.23,1.62,2.5,1.61
		c4.27-0.06,8.54-0.02,12.8-0.02c0,7.45,0,14.6,0,21.92c1.62,0.15,3.07,0.29,4.67,0.44c-3.41,4.51-5.1,12.35-3.59,16.49
		c-0.46,0.27-0.95,0.55-1.54,0.89c5.32,10.93,10.59,21.76,15.87,32.58c15.35,31.47,30.71,62.94,46.05,94.42
		c0.88,1.81,2.03,2.99,3.98,3.89c2.99,1.37,5.66,3.42,8.47,5.19c-0.71,3.21,1.76,4.55,3.58,6.27c-0.65,0.16-1.3,0.46-1.94,0.47
		c-23.8,0.02-47.61,0.02-71.41,0.02c0.54-1.96,1.56-3.92-0.37-5.79c-0.28-0.27-0.19-1.39,0.14-1.75c1.58-1.78,2.2-3.82,2.2-6.15
		c0.02-15.08-5.03-28.66-12.09-41.7c-15-27.7-50.08-52.2-85.35-54.61c-29.49-2.02-55.66,5.58-78.76,23.96
		c-20.17,16.05-33.11,36.54-37.72,61.99c-1.02,5.64-2.6,11.63,1.62,16.93c0.21,0.27,0.14,1.12-0.11,1.35
		c-2.03,1.83-0.84,3.82-0.4,5.77c-23.8,0-47.61,0-71.41-0.02c-0.65,0-1.3-0.3-1.94-0.47c1.76-1.67,4.11-2.99,3.59-6.45
		c3.1-1.74,6.51-3.55,9.78-5.58c1.02-0.64,1.89-1.78,2.43-2.89c14.54-29.71,29.03-59.45,43.52-89.19
		c5.53-11.34,11.05-22.69,16.59-34.02c0.69-1.41,1.16-2.65,0.81-4.41c-0.45-2.28,0.17-4.75-0.06-7.09c-0.34-3.51-0.98-7-4.08-10.05
		c1.77-0.16,3.2-0.29,4.86-0.44c0-7.23,0-14.39,0-21.95c3.58,0,7.18,0,10.78,0c3.98,0,3.87-0.05,5.34-3.75
		c9.82-24.83,15.58-50.82,22.04-76.62c4.3-17.18,8.73-34.32,12.87-51.53c1.25-5.2,0.3-10.46-1.87-15.35
		c-0.5-1.12-2.13-1.7-3.17-2.62c-0.45-0.39-1.06-1.03-1.01-1.49c0.2-1.79,0.64-3.56,1.04-5.6c3.37,0,6.89,0,10.55,0
		c1.32-8.84,2.77-17.45,3.85-26.09c2.63-20.95,5.34-41.89,7.53-62.89c1.64-15.69,2.57-31.46,3.71-47.2
		c1.47-20.26,2.95-40.53,4.23-60.8c1.02-16.16,1.77-32.33,2.59-48.5c1.26-24.9,2.52-49.8,3.71-74.71
		c1.07-22.56,2.15-45.12,3.03-67.69c0.67-17.15,1.2-34.31,1.45-51.47c0.1-6.65-1.2-13.22-4.5-19.17c-1.2-2.16-2.53-4.39-5.8-4.82
		c0.32-4.47,0.64-8.92,0.96-13.42c2.09-0.26,4.02-0.48,5.94-0.8c0.07-0.01,0.01-0.87,0.01-1.45c-0.83-0.08-1.53-0.15-2.44-0.25
		c0-2.73,0-5.43,0-8.02c0.87-0.47,1.68-0.91,2.49-1.35c-0.84-0.41-1.69-0.83-2.8-1.38c0-2.04,0-4.4,0-6.97c1.57,0,3.08,0,4.62,0
		c1.82-4.98,3.98-9.58,8-13.01c0.37-0.32,0.67-0.78,1.1-0.95c2.96-1.17,4.44-3.15,3.82-6.45c-0.06-0.31,0.69-0.71,0.84-1.15
		c0.21-0.6,0.51-1.47,0.25-1.88c-1.64-2.59-1.64-5.75,0.08-8.66c0.24-0.41,0.24-1.2,0-1.61c-1.71-2.85-1.74-6.19-0.08-8.64
		c0.26-0.39,0.35-1.37,0.11-1.56c-2.76-2.17-0.78-5.07-1.14-7.58c-0.14-0.97,1.03-2.07,1.32-3.18c0.45-1.71,0.92-3.48,0.94-5.23
		c0.09-9.63,0.04-19.27,0.04-28.9c0-0.87,0-1.74,0-2.71c-1.28-0.12-2.31-0.22-3.63-0.35c0.15-1.12,0.28-2.16,0.38-2.89
		c0.87,0.54,1.77,1.09,3.17,1.96c0-1.74,0-2.61,0-3.48C509.11,28,509.75,28,510.4,28z M487.78,672.69
		c-5.79,35.33-11.01,70.5-18.55,105.31c26.77,0,53.73,0,80.26,0c-6.25-35.16-12.49-70.2-18.73-105.31
		C516.55,672.69,502.25,672.69,487.78,672.69z"/>
</g>
</svg>
