<?xml version="1.0" encoding="utf-8"?>
<!-- Generator: Adobe Illustrator 24.2.0, SVG Export Plug-In . SVG Version: 6.00 Build 0)  -->
<svg version="1.1" id="Layer_1" xmlns="http://www.w3.org/2000/svg" xmlns:xlink="http://www.w3.org/1999/xlink" x="0px" y="0px"
	 viewBox="0 0 1000 1000" style="enable-background:new 0 0 1000 1000;" xml:space="preserve">
<g>
	<g transform="translate(0.000000,511.000000) scale(0.100000,-0.100000)">
		<path d="M5561.6,4984.5c-32.7-14.3-81.7-49-106.2-75.6c-42.9-47-257.3-602.5-245.1-637.2c2.1-8.2,98-47,214.4-85.8
			c114.4-38.8,236.9-85.8,271.6-104.2c53.1-26.6,67.4-28.6,81.7-4.1c49,77.6,202.2,561.6,202.2,635.2
			c0,116.4-63.3,212.4-169.5,259.4C5710.7,5019.2,5645.4,5021.3,5561.6,4984.5z"/>
		<path d="M6147.8,4335c-36.7-104.2-65.4-196.1-65.4-204.2s96-61.3,212.4-116.4c410.5-198.1,831.2-516.7,1127.3-855.7
			c1207-1386.7,1166.2-3447.4-93.9-4770.8c-306.3-320.6-643.3-565.7-1045.7-757.7c-488.1-230.8-837.4-314.5-1388.8-330.9
			c-424.8-12.2-663.8,8.2-976.2,87.8c-222.6,57.2-245.1,59.2-245.1,24.5c-2-14.3-30.6-106.2-69.4-202.2l-65.4-177.7l153.2-40.8
			c1407.1-379.9,2863.3,2,3880.4,1019.1C8329-1232.3,8735.4-252,8737.4,820.2c2,1094.7-426.8,2101.5-1217.2,2865.4
			c-324.7,312.5-700.5,573.9-1074.3,743.4C6196.8,4543.4,6221.3,4549.5,6147.8,4335z"/>
		<path d="M4066.7,4071.6C2465.5,3918.4,1260.5,2595,1262.6,993.8c2-520.8,100.1-941.5,326.8-1394.9
			C2016.2-1250.7,2778-1828.7,3741.9-2037c279.8-61.3,888.4-65.3,1166.2-10.2c616.8,126.6,1143.7,398.3,1582.8,825.1
			c439.1,422.8,727,931.3,872.1,1537.9c63.3,263.5,87.8,814.9,49,1086.5c-206.3,1446-1341.8,2534.5-2789.8,2671.3
			C4375,4096.1,4313.8,4096.1,4066.7,4071.6z M4044.2,3744.8c20.4-10.2,42.9-42.9,49-71.5c12.3-51.1,18.4-51.1,149.1-44.9l134.8,6.1
			v-57.2c0-73.5,51.1-104.2,120.5-73.5c63.3,28.6,114.4,12.3,114.4-38.8c0-65.4,49-89.9,77.6-42.9c14.3,22.5,42.9,38.8,61.3,34.7
			c18.4-2,69.5,20.4,112.3,53.1c49,38.8,104.2,59.2,161.3,63.3c49,4.1,136.8,12.3,196.1,20.4l108.3,16.3l112.3-114.4
			c122.5-126.6,134.8-155.2,61.3-143c-30.6,6.1-83.8-10.2-138.9-42.9c-63.3-36.8-138.9-57.2-253.2-69.4
			c-91.9-10.2-181.8-28.6-202.2-40.8c-26.5-14.3-59.2-10.2-120.5,18.4l-83.7,36.8l-26.5-51.1c-20.4-36.8-36.8-49-61.3-36.8
			c-157.3,65.3-208.3,77.6-232.8,53.1c-18.4-18.4-20.4-34.7-4.1-61.3c34.7-55.1,236.9-181.8,310.4-196.1
			c57.2-10.2,69.5-4.1,83.7,34.7c22.5,59.2,55.1,83.7,143,114.4c63.3,20.4,75.6,16.3,138.9-30.6c65.4-49,87.8-53.1,292-57.2
			c253.3-2.1,292.1-22.5,316.6-157.3c12.3-67.4,6.1-85.8-57.2-153.2c-38.8-44.9-75.6-98-83.7-122.5c-8.2-24.5-47-57.2-96-75.6
			c-75.6-28.6-91.9-30.6-143-4.1c-85.8,44.9-110.3,38.8-149.1-44.9c-20.4-42.9-57.2-93.9-85.8-114.4c-49-36.8-53.1-36.8-194,18.4
			c-138.9,55.1-145,55.1-214.4,22.5c-38.8-18.4-91.9-34.7-116.4-34.7s-132.8-55.1-239-122.5C4179,2168.2,4081,2113,4064.6,2113
			c-42.9,0-310.4-251.2-310.4-290c0-49-24.5-47-77.6,10.2c-32.7,34.7-40.8,69.4-40.8,157.3c2,214.4-73.5,285.9-300.2,285.9
			c-102.1,0-120.5-6.1-175.6-65.4c-57.2-63.3-59.2-73.5-59.2-267.5c0-192,4.1-208.3,81.7-371.7s104.2-275.7,63.3-275.7
			c-20.4,0-196.1,187.9-277.8,294.1c-26.5,34.7-55.1,89.9-63.3,120.5c-6.1,32.7-49,100.1-91.9,149.1
			c-91.9,106.2-112.3,187.9-89.9,361.5c24.5,185.8,18.4,326.8-16.3,404.4c-98,218.5-59.2,283.9,351.3,618.8
			c87.8,71.5,165.4,157.3,189.9,204.2c22.5,47,49,87.8,57.2,93.9c8.2,6.1,20.4,36.8,28.6,67.4c10.2,42.9,36.8,69.5,110.3,100.1
			C3596.9,3779.5,3944.1,3797.9,4044.2,3744.8z M6919.8,2160l42.9-53.1l59.2,44.9c34.7,24.5,61.3,40.8,61.3,38.8
			c0-4.1,28.6-87.8,61.3-185.8c81.7-243,81.7-263.5-14.3-255.3l-77.6,6.1l-10.2-104.2c-12.2-120.5-47-171.6-112.3-171.6
			c-57.2,0-96,44.9-89.9,106.2c2,26.5-2,61.3-8.2,77.6c-32.7,85.8-34.7,212.4-6.1,255.3s28.6,55.2,0,110.3
			c-36.8,71.5-22.5,185.9,22.5,185.9C6862.6,2215.1,6895.3,2190.6,6919.8,2160z M4066.7,1316.5c24.5-22.5-28.6-120.5-73.5-134.8
			c-51.1-16.3-36.8-96,42.9-253.2c55.1-110.3,57.2-112.3,147.1-112.3c128.7,0,228.7-63.3,261.4-163.4
			c30.6-94,79.7-153.2,124.6-153.2c18.4,0,61.3-18.4,96-38.8c69.4-42.9,118.5-177.7,96-263.5c-8.2-36.8,22.5-79.7,163.4-224.7
			c192-196.1,208.3-222.6,228.7-343.1c12.3-79.7,8.2-91.9-59.2-159.3c-40.8-38.8-73.5-81.7-73.5-94c0-10.2-57.2-57.2-126.6-100.1
			c-71.5-44.9-143-108.3-161.3-140.9c-28.6-51.1-47-59.2-196.1-79.7c-110.3-14.3-185.8-36.7-226.7-65.3
			c-79.7-55.1-216.5-104.2-294.1-104.2c-36.8,0-77.6-18.4-106.2-51.1c-61.3-65.4-85.8-63.3-226.7,10.2
			c-110.3,57.2-118.4,59.2-177.7,28.6c-36.8-20.4-75.6-65.4-100.1-122.5c-44.9-100.1-100.1-140.9-173.6-122.5
			c-44.9,12.2-47,20.4-44.9,161.3c2,79.7-4.1,167.5-12.3,190c-10.2,30.6,10.2,91.9,69.4,204.2c44.9,85.8,81.7,173.6,81.7,194
			c0,18.4,22.5,96,51.1,169.5c71.5,189.9,67.4,253.2-26.5,373.7c-41,53.3-102.3,139.1-135,188.1l-59.2,91.9l22.5,185.8
			c14.3,102.1,18.4,230.8,12.3,288c-12.3,100.1-10.2,104.2,79.6,196.1c49,51.1,118.5,108.2,153.2,126.6
			c47,24.5,69.4,55.1,85.8,114.4c36.8,138.9,126.6,200.1,320.6,222.6C3968.6,1351.2,4036,1347.1,4066.7,1316.5z M7264.9,734.4
			c34.7-71.5,10.2-255.3-73.5-541.2c-44.9-159.3-175.6-502.4-198.1-526.9c-16.3-16.3-110.3,14.3-143,49
			c-18.4,16.3-32.7,59.2-32.7,93.9c0,55.1-4.1,61.3-53.1,49c-44.9-12.3-69.4,2-155.2,89.9c-96,98-102.1,110.3-91.9,187.9
			c8.2,55.1,32.7,104.2,75.6,149.1c34.7,34.7,69.5,91.9,77.6,122.5c10.2,32.7,32.7,65.4,51.1,75.6c18.4,8.2,51.1,24.5,71.5,34.7
			c24.5,12.3,34.7,42.9,34.7,110.3c0,51.1,12.2,106.2,26.5,120.5c26.6,26.6,206.3,55.1,320.7,49
			C7222,795.7,7242.5,781.4,7264.9,734.4z"/>
		<path d="M2906.6-2096.2c-208.3-573.9-222.6-653.5-153.2-770c112.3-181.8,388-200.1,504.5-30.6c36.8,55.1,230.8,565.7,230.8,608.6
			c0,16.3-210.4,98-535.1,206.3C2933.2-2073.7,2912.8-2079.9,2906.6-2096.2z"/>
		<path d="M4097.3-3666.7l-6.1-292l-410.5-145c-226.7-79.6-424.8-157.2-445.2-173.6c-26.6-22.5-32.7-69.4-32.7-269.6v-243H4326
			h1123.3v241c0,130.7-8.2,251.2-16.3,263.5c-8.2,14.3-208.3,93.9-443.2,177.7l-428.9,151.1l-6.1,263.5l-6.1,265.5l-157.3,14.3
			c-85.8,8.2-185.8,18.4-222.6,24.5l-65.4,12.3L4097.3-3666.7z"/>
	</g>
</g>
</svg>
