<?xml version="1.0" encoding="utf-8"?>
<!-- Generator: Adobe Illustrator 24.2.0, SVG Export Plug-In . SVG Version: 6.00 Build 0)  -->
<svg version="1.1" id="Layer_1" xmlns="http://www.w3.org/2000/svg" xmlns:xlink="http://www.w3.org/1999/xlink" x="0px" y="0px"
	 viewBox="0 0 1024 1024" enable-background="new 0 0 1024 1024" xml:space="preserve">
<path fill="#212121" d="M128.23,56C86.85,56,53,89.85,53,131.23V495h444V56H128.23z M434,317H310v123h-75V317H112v-75h123V118h75
	v124h124V317z"/>
<path fill="#212121" d="M53,524v374.77C53,940.15,86.85,974,128.23,974H497V524H53z M410.47,839.55l-54.49,51.53l-85.2-90.09
	l-89.37,84.51l-51.53-54.49l89.36-84.51l-84.51-89.37l54.49-51.53l84.51,89.37l90.1-85.21l51.53,54.49l-90.09,85.2L410.47,839.55z"
	/>
<path fill="#212121" d="M895.77,56H526v439h445V131.23C971,89.85,937.15,56,895.77,56z M915,317H593v-75h322V317z"/>
<path fill="#212121" d="M526,524v450h369.77c41.38,0,75.23-33.85,75.23-75.23V524H526z M751.5,606c19.61,0,35.5,15.89,35.5,35.5
	S771.11,677,751.5,677S716,661.11,716,641.5S731.89,606,751.5,606z M752.5,891c-19.61,0-35.5-15.89-35.5-35.5s15.89-35.5,35.5-35.5
	s35.5,15.89,35.5,35.5S772.11,891,752.5,891z M915,786H593v-75h322V786z"/>
<polygon display="none" fill="#FFFFFF" points="971,495 971,524 526,524 526,974 497,974 497,524 53,524 53,495 497,495 497,56 
	526,56 526,495 "/>
<polygon display="none" fill="#FFFFFF" points="434,242 434,317 310,317 310,440 235,440 235,317 112,317 112,242 235,242 235,118 
	310,118 310,242 "/>
<rect x="593" y="242" display="none" fill="#FFFFFF" width="322" height="75"/>
<rect x="593" y="711" display="none" fill="#FFFFFF" width="322" height="75"/>
<polygon display="none" fill="#FFFFFF" points="325.27,749.45 410.47,839.55 355.98,891.08 270.78,800.99 181.41,885.5 
	129.88,831.01 219.24,746.5 134.73,657.13 189.22,605.6 273.73,694.97 363.83,609.76 415.36,664.25 "/>
<circle display="none" fill="#FFFFFF" cx="751.5" cy="641.5" r="35.5"/>
<circle display="none" fill="#FFFFFF" cx="752.5" cy="855.5" r="35.5"/>
</svg>
